<svg width="20" height="20" viewBox="0 0 20 20" fill="none" xmlns="http://www.w3.org/2000/svg">
<g clip-path="url(#clip0_7_137)">
<path d="M10 20C15.5228 20 20 15.5228 20 10C20 4.47715 15.5228 0 10 0C4.47715 0 0 4.47715 0 10C0 15.5228 4.47715 20 10 20Z" fill="white"/>
<path d="M15.975 10.8052V14.928H13.5847V11.0815C13.5847 10.1157 13.2396 9.45615 12.3741 9.45615C11.7137 9.45615 11.3213 9.9002 11.1481 10.3302C11.0851 10.4838 11.0689 10.6972 11.0689 10.9127V14.9278H8.67845C8.67845 14.9278 8.71054 8.41316 8.67845 7.7388H11.0691V8.75755C11.0643 8.76558 11.0575 8.77342 11.0532 8.78109H11.0691V8.75755C11.3867 8.26877 11.9533 7.56999 13.2234 7.56999C14.796 7.56999 15.975 8.59748 15.975 10.8052ZM6.17783 4.27344C5.36015 4.27344 4.8252 4.81018 4.8252 5.51537C4.8252 6.20559 5.34464 6.75784 6.14645 6.75784H6.16196C6.99568 6.75784 7.51406 6.20559 7.51406 5.51537C7.4982 4.81018 6.99568 4.27344 6.17783 4.27344ZM4.96727 14.928H7.35684V7.7388H4.96727V14.928Z" fill="black"/>
</g>
<defs>
<clipPath id="clip0_7_137">
<rect width="20" height="20" fill="white"/>
</clipPath>
</defs>
</svg>
